# xmcd
#
# Track frame offsets:
#	150
#	9052
#	17492
#	28041
#	34806
#	42099
#	50911
#	58333
#	67618
#	75861
#	89141
#	95817
#	102912
#	112401
#	120348
#	125984
#	133610
#	142255
#	151052
#	164872
#	170268
#	176741
#	194639
#	201808
#	211302
#	219927
#	226450
#	242122
#
# Disc length: 3313 seconds
#
# Revision: 1
# Processed by: cddbd v1.5.2PL0 Copyright (c) Steve Scherf et al.
# Submitted via: EasyCDDAExtractor 5.1.0
#
DISCID=970cef1c
DTITLE=Les Galvachers du Morvan - CD2
DYEAR=2008
DGENRE=Folklore
TTITLE0=Les Galvachers
TTITLE1=Scottish
TTITLE2=PistePolka des Bébés
TTITLE3=Bourrée Valsée
TTITLE4=La Morvandelle
TTITLE5=Mazurka à Jules
TTITLE6=Le Rigodon
TTITLE7=La Noce du Lazère
TTITLE8=L'Hirondelle
TTITLE9=La Bourrée à Trois
TTITLE10=Valse du Charcot
TTITLE11=Madame La Mariée
TTITLE12=Mon Père m'ai donné  un p'tit mari (Chant)
TTITLE13=Branle de Gouloux
TTITLE14=Trois p'tits maçons jolis
TTITLE15=Scottish Morvandelle
TTITLE16=Polka à Chevrier
TTITLE17=Bourrée de Chiddes
TTITLE18=Valse à Louis
TTITLE19=Mazurka du Jean d'lai Viole
TTITLE20=Le Jean'net
TTITLE21=Belle Bergère (Chant)
TTITLE22=La Varsovienne
TTITLE23=Marche de l'André
TTITLE24=Cotillon Vert
TTITLE25=Bourrée Ronde
TTITLE26=Les Pieumes de Beuf (Chant)
TTITLE27=Branle du Jean Cougny
EXTD=
EXTT0=
EXTT1=
EXTT2=
EXTT3=
EXTT4=
EXTT5=
EXTT6=
EXTT7=
EXTT8=
EXTT9=
EXTT10=
EXTT11=
EXTT12=
EXTT13=
EXTT14=
EXTT15=
EXTT16=
EXTT17=
EXTT18=
EXTT19=
EXTT20=
EXTT21=
EXTT22=
EXTT23=
EXTT24=
EXTT25=
EXTT26=
EXTT27=
PLAYORDER=
